<svg id="svg4932" xmlns="http://www.w3.org/2000/svg" xmlns:xlink="http://www.w3.org/1999/xlink" viewBox="0 0 512 512"><defs><style>.cls-1{fill:#fff;}.cls-2,.cls-4{fill:#499848;}.cls-2{opacity:0.3;}.cls-3{opacity:0.26;isolation:isolate;fill:url(#linear-gradient);}</style><linearGradient id="linear-gradient" x1="-298.91" y1="-37.98" x2="-551.94" y2="-50.51" gradientTransform="matrix(1.11, 0, 0, -1.11, 688.32, 323.65)" gradientUnits="userSpaceOnUse"><stop offset="0" stop-color="#959595"/><stop offset="1" stop-color="#ccc"/></linearGradient></defs><title>Artboard 1</title><circle class="cls-1" cx="256" cy="256" r="256"/><circle class="cls-2" cx="256" cy="256" r="256"/><path id="path3423-1" class="cls-3" d="M469.49,370.7c0,8.34-95.63,15.09-213.54,15.09S42.53,379,42.51,370.7,138.05,355.6,256,355.6s213.52,6.76,213.54,15.09Z"/><path id="path3046-2-3-0" class="cls-4" d="M227.15,376.78c-4.13-1.32-4.15-1.9-.34-13.46s2.06-22.27-5-30.69c-9.59-11.47-14.2-21.25-15.67-33.21-1.27-10.27-1.67-11.09-5.85-11.89-2.8-.54-6.68.53-15.92,4.38-13.43,5.61-16.63,8.07-19.8,15.23-1.67,3.77-1.87,6-.92,10.38,1.15,5.32,5.88,13.88,7.67,13.89.46,0,3,1.77,5.73,3.93,4.46,3.57,4.77,4.2,3.5,7.11-2.74,6.34-9.25,14-11.88,14-1.48,0-7.5-4.22-14.14-9.9-13-11.16-13.58-12.28-14.92-30.57-1.61-21.82,3.76-32,27.66-52.49l15-12.86,1-7.79c1-8-.41-27.17-2.75-37.73-1.38-6.24-5.94-12.19-10.27-13.39-4.71-1.31-7.48,1.39-11.07,10.81-3.87,10.16-7.57,13.7-14.3,13.7-4.19,0-8.11-2.68-10.81-7.4-1.93-3.39-3.06-23.74-1.9-34.45.56-5.16.59-10.37.07-11.6-.84-2-8.1-6.29-25.2-15a66.46,66.46,0,0,1-8.06-4.71A46.63,46.63,0,0,0,91.32,139c-6.5-2.88-23.44-12.78-21.85-12.78,3,0,15.71,3.91,22.48,6.92,4.14,1.83,8.09,3.34,8.8,3.34s8.67,2.56,17.7,5.7,17.3,5.7,18.36,5.7c2.51,0,2.9-2.18,2.1-11.6-.37-4.28-.35-7.78,0-7.78a14.94,14.94,0,0,1,3.7,1.83c5,3.09,15.89,5,28.63,5,12.18,0,28.08,2.43,34.16,5.2,8.72,4,18.83,16.33,31.66,38.74,8.92,15.58,18.51,22.17,32.24,22.19,5.55,0,20.37-2.29,40.43-6.25,16.54-3.27,38.38-4,46.85-1.57,10.34,3,24,10.87,35.32,20.43,10.58,9,12.21,10.95,18.71,22.83,7.75,14.18,16.31,34.33,23.93,56.33a104.83,104.83,0,0,0,5.09,11.72c4.57,8.83,4.35,9.37-4,9.37-9,0-13.26-1.42-19.18-6.45-5.68-4.82-7.16-7.77-16-31.9-4.55-12.37-9-19.79-11.82-19.79-1.94,0-5.86,13.25-5.86,19.8,0,4.65,2.91,10.93,10.44,22.52,12.24,18.82,18.68,45.44,16.1,66.55l-1.11,9.12-8.16.34c-12.84.53-12.71.71-12.71-17.65,0-19.54-1.33-23.77-10-31.66-3.59-3.27-11.62-12.57-17.87-20.67s-12.21-14.72-13.28-14.72c-2.44,0-3.66,6.66-3.79,20.72-.09,9.26-.45,10.83-3.18,13.68-7.41,7.73-12.61,21.82-15.81,42.83-.71,4.65-1.32,5.52-4.34,6.2-4.43,1-16.71,1.16-17.77.24s.69-13.43,4.31-34.08c1.38-7.84,2.89-18.35,3.35-23.37.81-8.93-1-25.66-3.18-29-.9-1.41-5.49-1.71-26.95-1.79-14.22-.05-29.82-.52-34.66-1l-8.81-.95v3.91c0,4.18,1.08,7.87,8.25,28.34,2.52,7.21,6.18,18.2,8.13,24.43l3.54,11.32-3,9.2a94.91,94.91,0,0,1-5.42,13.48c-2.36,4.14-2.63,4.27-9.25,4.18a46.38,46.38,0,0,1-10.53-1.27Z"/></svg>